<svg id="Layer_1" data-name="Layer 1" xmlns="http://www.w3.org/2000/svg" viewBox="0 0 638 231.17"><defs><style>.cls-1{opacity:0.75;}.cls-2{fill:#059;}.cls-3{fill:#fff;}.cls-4{fill:#1d5ea2;}</style></defs><path class="cls-2" d="M535.18 26.83H100.75s-83.5-1.75-83.5 87.75 83.5 88.5 83.5 88.5h434.43c1.51 0 83.69-1.41 83.69-88.13.01-69.72-62.22-88.12-83.69-88.12z"/><path class="cls-3" d="M611.62 114.08c0 78.69-73.84 80-73.84 80H155v-160h382.78c18.93 0 73.84 16.7 73.84 80zM123 75.83V51.08H85.35s-51.2-1.51-51.2 61.75 47.69 63.25 56 63.25H139v-71H89v23h25v23H88s-11.29-.29-17.26-8.47c0 0-5.74-6.73-5.74-21.43s.25-18.94.25-18.94-1.87-22.3 21.5-26.16z"/><path class="cls-2" d="M226.38 133.46v-13H199.5s-9.75 1.13-11.25-11.25h44s4.88-35.63-33.75-35c0 0-32.87-1.25-32.87 29.88s31.63 29.25 31.63 29.25z"/><path class="cls-3" d="M188 98.47S188.5 87 199.38 87s10.88 11.5 10.88 11.5z"/><path class="cls-2" d="M281.13 90.83V75.82h53.56v12.64l-29.13 29.12h31v15.87h-57.75v-15.06l27.5-27.56h-25.18zm66.25 42.63V54.29h22.19v28.58s6.23-8.42 19.31-8.42c0 0 19.42-1 19.63 18.54v40.46h-22.34v-33.16s.13-8.54-7.58-8.54c0 0-8.71-1.13-9 12.42v29.29zm95.37 0s-22 2.25-22-16c0 0-.21-11.63 10.5-14.54s26-5.33 31.46-8.29c0 0 1.08-7.83-7.5-6.92 0 0-10.08-1.12-11.42 6.75l-21.17-2.37s.13-17.29 26.42-17.54h10.08s25.08-2 25.46 21.38v37.54h-20.7v-7.58s-5 7.36-21.13 7.57z"/><path class="cls-3" d="M462.92 105.67v6s-.25 10.08-12.37 10.08c0 0-7 .88-7.25-5.58 0 0-1.17-5 9.79-7.65z"/><path class="cls-2" d="M500.5 54.25h22.33v79.21H500.5zm38.33 79.21v-12.21h28.33s8.58.62 8.58-5c0 0 .63-3.75-6.54-4.75l-18.12-3.55s-14-3.08-14-16.12 13.21-16.16 13.21-16.16A47.59 47.59 0 0 1 563.37 74h20.13v11.58h-19s-7.21-.17-7.21 4.46c0 0-.46 4.25 8.67 4.58 0 0 13.21 1.42 17.29 2.83 0 0 9.67 3.08 11.71 9.63a20.67 20.67 0 0 1-.13 13.29c-2.58 6.67-10.58 13.08-28.83 13.08zm-347.52 43.31v-29.31h19.25s9.56 0 9.56 9.06-9.69 9.37-9.69 9.37H202v10.9z"/><path class="cls-3" d="M201.88 159.93v-6.22h3.22s4.69-.22 4.69 3-4.66 3.22-4.66 3.22z"/><path class="cls-2" d="M224.92 176.77V155.5h8.92v3.17s1.95-3.74 5.7-3.74c0 0 3 0 4.59 1.16l-2.84 5.84s-6.78-2.66-6.78 5.19v9.66zm156.62.13v-21.28h8.92v3.17s1.95-3.74 5.7-3.74c0 0 3 0 4.59 1.16l-2.84 5.84s-6.78-2.66-6.78 5.19v9.66zm-110.44-.28v-4.88h-11.27s-4.09.42-4.72-4.22h18.45s2-13.36-14.15-13.13c0 0-13.78-.47-13.78 11.2s13.26 11 13.26 11z"/><path class="cls-3" d="M255 163.5a4.56 4.56 0 0 1 4.77-4.32 4.3 4.3 0 0 1 4.56 4.31z"/><path class="cls-4" d="M245.25 75.83h22.13v57.63h-22.13zm0-21.62h22.13v14.75h-22.13z"/><path class="cls-2" d="M278.13 155.54h9.63v21.19h-9.63zm0-7.96h9.63V153h-9.63zm-32.88-71.75h22.13v57.63h-22.13zm0-21.62h22.13v14.75h-22.13zm237.88 101.33h9.63v21.19h-9.63zm0-7.96h9.63V153h-9.63zM294.11 176.9v-4.55h12s3.62.23 3.62-1.88c0 0 .26-1.4-2.76-1.77l-7.65-1.32s-5.91-1.15-5.91-6 5.57-6 5.57-6a22.59 22.59 0 0 1 5.52-.62h8.5V159h-8s-3-.06-3 1.66c0 0-.19 1.58 3.66 1.71a63.75 63.75 0 0 1 7.3 1.06s4.08 1.15 4.94 3.59a6.86 6.86 0 0 1-.05 5c-1.09 2.49-4.47 4.88-12.17 4.88zm25.27-21.48l10.5 21.35h8.4l10.59-21.43h-9.62l-5.06 13.18-4.75-13.12-10.06.02zm55.34 21.39v-4.92h-11.26s-4.09.42-4.72-4.25h18.45s2-13.47-14.15-13.24c0 0-13.79-.47-13.79 11.3s13.26 11.06 13.26 11.06z"/><path class="cls-3" d="M358.63 163.58a4.59 4.59 0 0 1 4.77-4.36 4.33 4.33 0 0 1 4.56 4.35z"/><path class="cls-2" d="M411.84 175.92s-9.37 0-9.37-10.21c0-10.78 9.91-10.31 9.91-10.31s5.47-.37 8.09 3.09v-3.09h9.12v21.9s.5 7.81-13.66 7.81h-10.8v-5.28h10.69s4 .25 4-3.06v-3.56s-1.32 2.71-7.98 2.71z"/><path class="cls-3" d="M415.92 170.33a4.2 4.2 0 0 1-4.13-4.42s-.53-4.75 4-4.75 4.08 4.83 4.08 4.83.3 4.34-3.95 4.34z"/><path class="cls-2" d="M476 176.81v-4.88h-11.57a4.48 4.48 0 0 1-4.83-4.22h18.9s2.09-13.36-14.5-13.13c0 0-14.12-.47-14.12 11.2s13.58 11 13.58 11z"/><path class="cls-3" d="M459.49 163.69a4.61 4.61 0 0 1 4.89-4.32 4.34 4.34 0 0 1 4.67 4.31z"/><path class="cls-2" d="M435.81 147.4h9.62v29.37h-9.62zm87.63 29.48v-5.71h-11.81s-4.84.13-4.84-4.84 3-5.72 4.59-5.72h10.69v-6H511.5s-14.19-.25-14.19 11 11.87 11.25 13.94 11.25zm5.56-.11v-29.31h9.39V158s2.63-3.12 8.17-3.12c0 0 8.21-.36 8.3 6.86v15h-9.45v-12.25a3.07 3.07 0 0 0-3.21-3.16s-3.69-.42-3.83 4.6v10.84z"/></svg>