<?xml version="1.0" encoding="UTF-8" standalone="no"?>
<svg width="477px" height="133px" viewBox="0 0 477 133" version="1.1" xmlns="http://www.w3.org/2000/svg" xmlns:xlink="http://www.w3.org/1999/xlink"><script xmlns=""/>
    <!-- Generator: Sketch 39.1 (31720) - http://www.bohemiancoding.com/sketch -->
    <title>Edument - logo Copy 6</title>
    <desc>Created with Sketch.</desc>
    <defs/>
    <g id="1-sketching" stroke="none" stroke-width="1" fill="none" fill-rule="evenodd">
        <g id="Desktop-HD-Copy" transform="translate(-1461.000000, -1028.000000)">
            <g id="Edument---logo-Copy-6" transform="translate(1461.000000, 1028.000000)">
                <g id="Lettering" transform="translate(167.000000, 41.000000)" fill="#020302">
                    <polygon id="Fill-16" points="287.494629 50.2214642 287.494629 4.59300217 270.385093 4.59300217 270.385093 0.156728496 309.805895 0.156728496 309.805895 4.59300217 292.663035 4.59300217 292.663035 50.2214642"/>
                    <polygon id="Fill-13" points="259.900067 50.2214642 231.86658 9.22724026 231.86658 50.2214642 226.663263 50.2214642 226.663263 0.156728496 231.646006 0.156728496 259.715991 41.1852454 259.715991 0.156728496 264.849487 0.156728496 264.849487 50.2214642"/>
                    <polygon id="Fill-10" points="187.340053 50.2214642 187.340053 0.156728496 219.239133 0.156728496 219.239133 4.59300217 192.510046 4.59300217 192.510046 22.2289826 215.906725 22.2289826 215.906725 26.6652563 192.510046 26.6652563 192.510046 45.7851905 219.412101 45.7851905 219.412101 50.2214642"/>
                    <polygon id="Fill-7" points="173.956467 50.2214642 173.956467 28.3612035 174.264318 8.80013591 156.462911 50.2214642 152.571927 50.2214642 134.841929 8.97004238 135.148193 28.2193549 135.148193 50.2214642 129.9782 50.2214642 129.9782 0.156728496 136.365315 0.156728496 154.50155 42.7876662 172.704433 0.156728496 179.124873 0.156728496 179.124873 50.2214642"/>
                    <path d="M122.34762,0.157196129 L122.34762,32.8244439 C122.34762,38.2520985 120.619528,42.5434061 117.163345,45.6999255 C113.707161,48.8580037 108.984663,50.435484 102.997436,50.435484 C97.1022474,50.435484 92.4210073,48.9016494 88.953716,45.8370977 C85.4864246,42.7709873 83.7170745,38.5591772 83.6472526,33.1985499 L83.6472526,0.157196129 L94.0507136,0.157196129 L94.0507136,32.8914713 C94.0507136,36.1399584 94.8425573,38.5077376 96.4262446,39.994809 C98.0099319,41.4818803 100.1998,42.225416 102.997436,42.225416 C108.846606,42.225416 111.81721,39.2060688 111.910835,33.1642569 L111.910835,0.157196129 L122.34762,0.157196129 Z" id="Fill-4"/>
                    <path d="M50.5112138,8.43444729 L50.5112138,41.5443872 L55.5399764,41.5443872 C59.6086881,41.5443872 62.7173489,40.2396925 64.8691325,37.6271856 C67.0177423,35.0162375 68.1158502,31.2798538 68.163456,26.4211521 L68.163456,23.7977338 C68.163456,18.7566554 67.0986722,14.9345391 64.9722784,12.3345024 C62.8442978,9.73446565 59.735637,8.43444729 55.6431224,8.43444729 L50.5112138,8.43444729 Z M40.1077528,49.7544552 L40.1077528,0.157352006 L55.6431224,0.157352006 C60.0831596,0.157352006 64.0534859,1.13938026 67.5556882,3.10343677 C71.0578905,5.06749328 73.7920521,7.86081809 75.7565861,11.4834112 C77.7211201,15.1060043 78.7049739,19.2211703 78.7049739,23.830468 L78.7049739,26.1140734 C78.7049739,30.7233711 77.7385755,34.8229494 75.8089525,38.4112494 C73.8793295,41.9995495 71.1562759,44.7804041 67.6429656,46.7569308 C64.1280684,48.7318988 60.1640895,49.7326323 55.7478552,49.7544552 L40.1077528,49.7544552 Z" id="Fill-2"/>
                    <polygon id="Fill-1" points="0.869122389 0.156884374 0.869122389 49.7539875 34.7152816 49.7539875 34.7152816 41.5454784 11.2725834 41.5454784 11.2725834 28.1914529 31.2479902 28.1914529 31.2479902 20.2541705 11.2725834 20.2541705 11.2725834 8.43397966 34.6454597 8.43397966 34.6454597 0.156884374"/>
                </g>
                <g id="symbol">
                    <path d="M72.2410969,21.423822 C57.2053856,20.5087 36.1452481,31.4362366 41.4139629,57.3390902 C41.6936742,58.7134073 42.0829801,60.061578 42.5246296,61.3934073 L108.502155,41.6954073 C100.477221,30.1746756 86.6601347,22.3013585 72.2410969,21.423822 M51.2120385,76.0909195 L114.742499,55.6019927 C118.121935,70.0707244 108.654279,91.1577488 83.8384852,91.1577488 C71.526279,91.1577488 59.4414405,85.1702366 51.2120385,76.0909195" id="Fill-1" fill="#6AB842"/>
                    <path d="M32.7026722,31.8674878 C40.5902048,20.2143902 54.080143,13.5307317 69.7145347,13.5307317 C70.8431945,13.5307317 71.9833045,13.5666829 73.1250502,13.6385854 C90.6928852,14.695878 105.121737,25.9714878 112.718109,37.0036098 L114.680995,39.8519268 L108.50281,41.696878 L42.5236481,61.3932439 L30.7332426,64.9131951 C25.914356,51.2795122 28.2649127,39.2554634 32.7026722,31.8674878 L32.7026722,31.8674878 Z M127.351428,77.5925366 C125.651896,82.5946585 122.972555,87.1261463 119.305229,91.1575854 L119.352665,91.2376585 L115.618274,94.8703659 L115.546301,94.7968293 C115.103016,95.1694146 114.659731,95.5256585 114.219717,95.8639268 L112.485834,97.1418293 L112.451483,97.1026098 C109.783593,98.9246829 106.92105,100.436268 103.912926,101.604683 L101.837174,102.380902 L101.794645,102.354756 C101.622892,102.410317 101.449504,102.464244 101.276115,102.518171 L101.276115,102.563927 L99.588033,103.039463 L96.1022735,104.001976 C96.1022735,104.001976 89.7277993,105.034756 82.5256412,104.591902 C82.3211739,104.578829 82.1117993,104.562488 82.0087478,104.549415 C81.8664385,104.537976 81.7241292,104.526537 81.5785485,104.508561 L81.5360192,104.505293 L80.8686378,104.438293 C79.7972289,104.322268 78.7160055,104.168659 77.5955244,103.982366 L76.7154969,103.833659 C75.20571,103.550951 73.7482667,103.217585 72.3856962,102.845 C56.6760605,98.5978537 42.7542873,87.7634634 34.776789,73.7098049 L46.6718818,70.1293902 L46.6718818,70.1293902 L131.282109,44.6693902 C128.797421,40.2751707 118.842315,20.1261463 96.1562529,8.1494878 C85.6809814,2.61953659 71.4042529,0 60.5674832,0 C39.5187959,0 19.2356344,11.7642195 10.4337237,24.4010732 C1.78884399,36.9006585 -5.91712165,57.5595366 6.46705704,84.9837805 C16.9243354,108.155976 40.2696,126.505805 65.9376137,131.735073 C69.5705897,132.475341 73.4129402,132.851195 77.3583423,132.851195 L77.359978,132.851195 C96.8596206,132.851195 115.883263,123.91078 123.882026,115.498195 C133.015992,105.89922 136.616253,94.0320488 136.616253,94.0320488 C138.3256,88.6393659 139.287414,84.1372927 139.287414,76.9568537 L127.351428,77.5925366 Z" id="Fill-3" fill="#000000"/>
                </g>
            </g>
        </g>
    </g>
</svg>